<svg version="1" xmlns="http://www.w3.org/2000/svg" width="400" height="400" viewBox="0 0 300.000000 300.000000"><path d="M140 34.6c-1.4.2-5.6.9-9.5 1.5-28.8 4.6-57.1 22.1-75.2 46.6-31 41.8-31.1 99.7-.2 141.3 41.7 56.3 120.9 65.1 174.2 19.5 13.9-11.8 26-29.1 33-47 10.6-26.8 10.4-59.9-.4-86.9-6.6-16.5-14.6-28.6-27.5-41.2-16.4-16.2-36.5-26.9-59.9-31.9-6.9-1.5-29.7-2.8-34.5-1.9zm-34.6 76c2.7 1 3.8 4.1 2.5 6.6-.7 1.3-7.1 9.3-14.3 17.8-7.2 8.6-13.6 16.2-14.3 17.1-1 1.2 1.4 4.6 14.3 19.9 8.5 10.1 15.4 19 15.4 19.7 0 1.7-3.6 5.3-5.3 5.3-.7 0-2-.6-2.9-1.3-3.2-2.6-33.5-39.3-34.2-41.4-.6-1.7 2.3-5.7 16-22 19.7-23.5 19.3-23 22.8-21.7zm72.4 1c1.2.8 2.2 2.3 2.2 3.4 0 2-45.9 76.1-49.5 79.9-2.7 2.8-6.1 2.2-7.7-1.4-1-2.2 1.3-6.3 23.6-41.9 21.7-34.7 26.3-41.4 28.6-41.6.3 0 1.6.7 2.8 1.6zm24 .1c3.3 2.8 32.3 37.6 33.5 40.1 1.3 2.7 1.3 2.8-17.6 25.2-18 21.4-18.6 21.9-22.1 18.4-3.2-3.2-1.8-5.7 13.4-23.8 8.3-9.8 15-17.9 15-18.1 0-.2-6.7-8.4-15-18.2-15.2-18-16.6-20.5-13.4-23.7 2-2.1 3.7-2 6.2.1z"/></svg>